<svg xmlns="http://www.w3.org/2000/svg" xmlns:xlink="http://www.w3.org/1999/xlink" width="500" zoomAndPan="magnify" viewBox="0 0 375 74.999997" height="100" preserveAspectRatio="xMidYMid meet" version="1.0"><defs><g/><clipPath id="3dc93b0354"><path d="M 45 0 L 101.550781 0 L 101.550781 75 L 45 75 Z M 45 0 " clip-rule="nonzero"/></clipPath><clipPath id="69cb7fdbaf"><path d="M 3.300781 0 L 59 0 L 59 75 L 3.300781 75 Z M 3.300781 0 " clip-rule="nonzero"/></clipPath></defs><g clip-path="url(#3dc93b0354)"><path fill="#8c52ff" d="M 87.390625 50.648438 L 101.28125 58.652344 L 101.28125 44.761719 L 87.390625 36.757812 L 87.390625 0.800781 L 73.5 0.800781 L 73.5 56.820312 L 45.890625 40.929688 L 45.890625 54.820312 L 55.378906 60.25 L 73.5 70.769531 L 79.445312 74.199219 L 87.390625 74.199219 Z M 87.390625 50.648438 " fill-opacity="1" fill-rule="evenodd"/></g><g clip-path="url(#69cb7fdbaf)"><path fill="#5e17eb" d="M 17.191406 24.351562 L 3.300781 16.292969 L 3.300781 30.183594 L 17.191406 38.242188 L 17.191406 74.199219 L 31.082031 74.199219 L 31.082031 18.121094 L 58.695312 34.070312 L 58.695312 20.179688 L 49.261719 14.691406 L 31.082031 4.230469 L 25.136719 0.800781 L 17.191406 0.800781 Z M 17.191406 24.351562 " fill-opacity="1" fill-rule="evenodd"/></g><g fill="#5271ff" fill-opacity="1"><g transform="translate(105.573109, 58.692237)"><g><path d="M 10.96875 -27.921875 L 11.140625 -23.234375 L 11.140625 0 L 4.578125 0 L 4.578125 -43.171875 L 5.390625 -43.171875 L 30.734375 -14.90625 L 30.5 -19.828125 L 30.5 -43.109375 L 37.078125 -43.109375 L 37.078125 0 L 36.1875 0 Z M 10.96875 -27.921875 "/></g></g></g><g fill="#5271ff" fill-opacity="1"><g transform="translate(147.215913, 58.692237)"><g><path d="M 16.890625 0.59375 C 13.679688 0.59375 11 -0.0390625 8.84375 -1.3125 C 6.695312 -2.582031 5.113281 -4.285156 4.09375 -6.421875 C 3.082031 -8.554688 2.578125 -10.894531 2.578125 -13.4375 C 2.578125 -16.289062 3.171875 -18.789062 4.359375 -20.9375 C 5.554688 -23.09375 7.210938 -24.742188 9.328125 -25.890625 C 11.441406 -27.046875 13.828125 -27.625 16.484375 -27.625 C 20.628906 -27.625 23.707031 -26.476562 25.71875 -24.1875 C 27.726562 -21.90625 28.734375 -18.691406 28.734375 -14.546875 C 28.734375 -13.492188 28.675781 -12.398438 28.5625 -11.265625 L 9.203125 -11.265625 C 9.640625 -8.878906 10.492188 -7.15625 11.765625 -6.09375 C 13.035156 -5.039062 14.800781 -4.515625 17.0625 -4.515625 C 18.945312 -4.515625 20.492188 -4.671875 21.703125 -4.984375 C 22.910156 -5.296875 24.023438 -5.726562 25.046875 -6.28125 L 26.984375 -1.765625 C 26.003906 -1.140625 24.671875 -0.585938 22.984375 -0.109375 C 21.304688 0.359375 19.273438 0.59375 16.890625 0.59375 Z M 22.578125 -15.65625 C 22.617188 -18.082031 22.09375 -19.796875 21 -20.796875 C 19.90625 -21.796875 18.34375 -22.296875 16.3125 -22.296875 C 12.195312 -22.296875 9.828125 -20.082031 9.203125 -15.65625 Z M 22.578125 -15.65625 "/></g></g></g><g fill="#5271ff" fill-opacity="1"><g transform="translate(178.418689, 58.692237)"><g><path d="M 4.28125 -26.921875 L 10.375 -26.921875 L 10.375 -21.9375 C 12.53125 -25.726562 15.894531 -27.625 20.46875 -27.625 C 24.257812 -27.625 27.328125 -26.421875 29.671875 -24.015625 C 32.023438 -21.609375 33.203125 -18.140625 33.203125 -13.609375 C 33.203125 -10.796875 32.625 -8.3125 31.46875 -6.15625 C 30.3125 -4.007812 28.742188 -2.347656 26.765625 -1.171875 C 24.796875 0.00390625 22.597656 0.59375 20.171875 0.59375 C 17.910156 0.59375 15.945312 0.191406 14.28125 -0.609375 C 12.625 -1.410156 11.320312 -2.554688 10.375 -4.046875 L 10.4375 14.25 L 4.28125 14.25 Z M 18.71875 -4.75 C 21.257812 -4.75 23.210938 -5.5625 24.578125 -7.1875 C 25.941406 -8.8125 26.625 -10.894531 26.625 -13.4375 C 26.625 -16.09375 25.945312 -18.210938 24.59375 -19.796875 C 23.25 -21.378906 21.289062 -22.171875 18.71875 -22.171875 C 17.300781 -22.171875 15.976562 -21.828125 14.75 -21.140625 C 13.519531 -20.460938 12.539062 -19.488281 11.8125 -18.21875 C 11.09375 -16.945312 10.734375 -15.46875 10.734375 -13.78125 L 10.734375 -13.375 C 10.734375 -11.6875 11.09375 -10.1875 11.8125 -8.875 C 12.539062 -7.570312 13.507812 -6.554688 14.71875 -5.828125 C 15.9375 -5.109375 17.269531 -4.75 18.71875 -4.75 Z M 18.71875 -4.75 "/></g></g></g><g fill="#5271ff" fill-opacity="1"><g transform="translate(214.196308, 58.692237)"><g><path d="M 3.984375 -26.921875 L 10.328125 -26.921875 L 10.328125 -21.640625 C 10.953125 -23.441406 11.96875 -24.890625 13.375 -25.984375 C 14.78125 -27.078125 16.382812 -27.625 18.1875 -27.625 C 19.4375 -27.625 20.296875 -27.507812 20.765625 -27.28125 L 19.890625 -20.875 C 19.535156 -21.113281 18.769531 -21.234375 17.59375 -21.234375 C 15.757812 -21.234375 14.085938 -20.644531 12.578125 -19.46875 C 11.078125 -18.300781 10.328125 -16.425781 10.328125 -13.84375 L 10.328125 0 L 3.984375 0 Z M 3.984375 -26.921875 "/></g></g></g><g fill="#5271ff" fill-opacity="1"><g transform="translate(235.252318, 58.692237)"><g><path d="M 16.71875 0.59375 C 13.9375 0.59375 11.46875 -0.03125 9.3125 -1.28125 C 7.164062 -2.539062 5.503906 -4.242188 4.328125 -6.390625 C 3.160156 -8.546875 2.578125 -10.929688 2.578125 -13.546875 C 2.578125 -16.128906 3.15625 -18.492188 4.3125 -20.640625 C 5.46875 -22.796875 7.117188 -24.5 9.265625 -25.75 C 11.421875 -27 13.90625 -27.625 16.71875 -27.625 C 19.53125 -27.625 22 -27 24.125 -25.75 C 26.257812 -24.5 27.90625 -22.796875 29.0625 -20.640625 C 30.21875 -18.492188 30.796875 -16.128906 30.796875 -13.546875 C 30.796875 -10.929688 30.207031 -8.546875 29.03125 -6.390625 C 27.863281 -4.242188 26.210938 -2.539062 24.078125 -1.28125 C 21.941406 -0.03125 19.488281 0.59375 16.71875 0.59375 Z M 16.890625 -4.578125 C 19.160156 -4.578125 20.945312 -5.414062 22.25 -7.09375 C 23.5625 -8.78125 24.21875 -10.894531 24.21875 -13.4375 C 24.21875 -15.976562 23.515625 -18.117188 22.109375 -19.859375 C 20.703125 -21.597656 18.847656 -22.46875 16.546875 -22.46875 C 14.316406 -22.46875 12.523438 -21.601562 11.171875 -19.875 C 9.828125 -18.15625 9.15625 -16.007812 9.15625 -13.4375 C 9.15625 -10.925781 9.875 -8.820312 11.3125 -7.125 C 12.757812 -5.425781 14.617188 -4.578125 16.890625 -4.578125 Z M 16.890625 -4.578125 "/></g></g></g><g fill="#5271ff" fill-opacity="1"><g transform="translate(268.625209, 58.692237)"><g><path d="M 13.4375 0.59375 C 11.550781 0.59375 9.601562 0.347656 7.59375 -0.140625 C 5.582031 -0.628906 4.144531 -1.207031 3.28125 -1.875 L 5.390625 -6.859375 C 7.742188 -5.222656 10.425781 -4.40625 13.4375 -4.40625 C 16.445312 -4.40625 17.953125 -5.28125 17.953125 -7.03125 C 17.953125 -7.820312 17.640625 -8.429688 17.015625 -8.859375 C 16.390625 -9.285156 15.273438 -9.789062 13.671875 -10.375 L 11.4375 -11.203125 C 9.09375 -12.140625 7.234375 -13.265625 5.859375 -14.578125 C 4.492188 -15.890625 3.8125 -17.617188 3.8125 -19.765625 C 3.8125 -22.234375 4.78125 -24.160156 6.71875 -25.546875 C 8.65625 -26.929688 11.242188 -27.625 14.484375 -27.625 C 16.085938 -27.625 17.660156 -27.445312 19.203125 -27.09375 C 20.753906 -26.75 21.941406 -26.300781 22.765625 -25.75 L 20.46875 -20.703125 C 19.957031 -21.210938 19.144531 -21.648438 18.03125 -22.015625 C 16.914062 -22.390625 15.675781 -22.578125 14.3125 -22.578125 C 11.53125 -22.578125 10.140625 -21.738281 10.140625 -20.0625 C 10.140625 -19.125 10.507812 -18.410156 11.25 -17.921875 C 12 -17.429688 13.21875 -16.894531 14.90625 -16.3125 C 15.0625 -16.269531 15.664062 -16.050781 16.71875 -15.65625 C 19.21875 -14.675781 21.070312 -13.5625 22.28125 -12.3125 C 23.5 -11.0625 24.109375 -9.460938 24.109375 -7.515625 C 24.109375 -4.847656 23.097656 -2.828125 21.078125 -1.453125 C 19.066406 -0.0859375 16.519531 0.59375 13.4375 0.59375 Z M 13.4375 0.59375 "/></g></g></g><g fill="#5271ff" fill-opacity="1"><g transform="translate(295.135836, 58.692237)"><g><path d="M 16.71875 0.59375 C 13.9375 0.59375 11.46875 -0.03125 9.3125 -1.28125 C 7.164062 -2.539062 5.503906 -4.242188 4.328125 -6.390625 C 3.160156 -8.546875 2.578125 -10.929688 2.578125 -13.546875 C 2.578125 -16.128906 3.15625 -18.492188 4.3125 -20.640625 C 5.46875 -22.796875 7.117188 -24.5 9.265625 -25.75 C 11.421875 -27 13.90625 -27.625 16.71875 -27.625 C 19.53125 -27.625 22 -27 24.125 -25.75 C 26.257812 -24.5 27.90625 -22.796875 29.0625 -20.640625 C 30.21875 -18.492188 30.796875 -16.128906 30.796875 -13.546875 C 30.796875 -10.929688 30.207031 -8.546875 29.03125 -6.390625 C 27.863281 -4.242188 26.210938 -2.539062 24.078125 -1.28125 C 21.941406 -0.03125 19.488281 0.59375 16.71875 0.59375 Z M 16.890625 -4.578125 C 19.160156 -4.578125 20.945312 -5.414062 22.25 -7.09375 C 23.5625 -8.78125 24.21875 -10.894531 24.21875 -13.4375 C 24.21875 -15.976562 23.515625 -18.117188 22.109375 -19.859375 C 20.703125 -21.597656 18.847656 -22.46875 16.546875 -22.46875 C 14.316406 -22.46875 12.523438 -21.601562 11.171875 -19.875 C 9.828125 -18.15625 9.15625 -16.007812 9.15625 -13.4375 C 9.15625 -10.925781 9.875 -8.820312 11.3125 -7.125 C 12.757812 -5.425781 14.617188 -4.578125 16.890625 -4.578125 Z M 16.890625 -4.578125 "/></g></g></g><g fill="#5271ff" fill-opacity="1"><g transform="translate(328.508737, 58.692237)"><g><path d="M 6.6875 -21.875 L 2.34375 -21.875 L 2.34375 -26.921875 L 6.6875 -26.921875 L 6.6875 -32.734375 C 6.6875 -36.253906 7.535156 -38.976562 9.234375 -40.90625 C 10.941406 -42.84375 13.4375 -43.8125 16.71875 -43.8125 C 18.050781 -43.8125 19.554688 -43.441406 21.234375 -42.703125 L 20 -36.71875 C 19.726562 -37.03125 19.304688 -37.332031 18.734375 -37.625 C 18.171875 -37.914062 17.554688 -38.0625 16.890625 -38.0625 C 14.273438 -38.0625 12.945312 -36.363281 12.90625 -32.96875 L 12.90625 -26.921875 L 19.234375 -26.921875 L 19.234375 -21.875 L 12.90625 -21.875 L 12.90625 0 L 6.6875 0 Z M 6.6875 -21.875 "/></g></g></g><g fill="#5271ff" fill-opacity="1"><g transform="translate(349.740701, 58.692237)"><g><path d="M 6.515625 -21.765625 L 1.765625 -21.765625 L 1.765625 -26.921875 L 6.515625 -26.921875 L 6.515625 -37.890625 L 12.90625 -39.296875 L 12.90625 -26.921875 L 19.125 -26.921875 L 19.125 -21.765625 L 12.90625 -21.765625 L 12.90625 0 L 6.515625 0 Z M 6.515625 -21.765625 "/></g></g></g></svg>