<svg xmlns="http://www.w3.org/2000/svg" xmlns:xlink="http://www.w3.org/1999/xlink" width="500" zoomAndPan="magnify" viewBox="0 0 375 374.999991" height="500" preserveAspectRatio="xMidYMid meet" version="1.0"><defs><g/><clipPath id="48c9d54c09"><path d="M 166 39 L 334.5 39 L 334.5 263 L 166 263 Z M 166 39 " clip-rule="nonzero"/></clipPath><clipPath id="c4637a0098"><path d="M 37.5 39 L 206 39 L 206 263 L 37.5 263 Z M 37.5 39 " clip-rule="nonzero"/></clipPath></defs><g clip-path="url(#48c9d54c09)"><path fill="#8c52ff" d="M 292.683594 191.195312 L 334.839844 215.480469 L 334.839844 173.328125 L 292.683594 149.039062 L 292.683594 39.921875 L 250.53125 39.921875 L 250.53125 209.929688 L 166.742188 161.703125 L 166.742188 203.859375 L 195.539062 220.339844 L 250.53125 252.257812 L 268.570312 262.667969 L 292.683594 262.667969 Z M 292.683594 191.195312 " fill-opacity="1" fill-rule="evenodd"/></g><g clip-path="url(#c4637a0098)"><path fill="#5e17eb" d="M 79.65625 111.394531 L 37.5 86.933594 L 37.5 129.089844 L 79.65625 153.550781 L 79.65625 262.667969 L 121.808594 262.667969 L 121.808594 92.484375 L 205.597656 140.886719 L 205.597656 98.730469 L 176.976562 82.078125 L 121.808594 50.332031 L 103.769531 39.921875 L 79.65625 39.921875 Z M 79.65625 111.394531 " fill-opacity="1" fill-rule="evenodd"/></g><g fill="#5271ff" fill-opacity="1"><g transform="translate(3.089053, 359.049991)"><g><path d="M 15.296875 -38.9375 L 15.546875 -32.390625 L 15.546875 0 L 6.375 0 L 6.375 -60.203125 L 7.53125 -60.203125 L 42.859375 -20.78125 L 42.53125 -27.640625 L 42.53125 -60.125 L 51.703125 -60.125 L 51.703125 0 L 50.46875 0 Z M 15.296875 -38.9375 "/></g></g></g><g fill="#5271ff" fill-opacity="1"><g transform="translate(61.158957, 359.049991)"><g><path d="M 23.5625 0.8125 C 19.082031 0.8125 15.34375 -0.0703125 12.34375 -1.84375 C 9.351562 -3.613281 7.144531 -5.984375 5.71875 -8.953125 C 4.300781 -11.929688 3.59375 -15.191406 3.59375 -18.734375 C 3.59375 -22.710938 4.425781 -26.203125 6.09375 -29.203125 C 7.757812 -32.203125 10.0625 -34.503906 13 -36.109375 C 15.945312 -37.722656 19.273438 -38.53125 22.984375 -38.53125 C 28.765625 -38.53125 33.054688 -36.929688 35.859375 -33.734375 C 38.671875 -30.546875 40.078125 -26.0625 40.078125 -20.28125 C 40.078125 -18.8125 39.992188 -17.285156 39.828125 -15.703125 L 12.84375 -15.703125 C 13.4375 -12.378906 14.617188 -9.976562 16.390625 -8.5 C 18.171875 -7.03125 20.640625 -6.296875 23.796875 -6.296875 C 26.421875 -6.296875 28.578125 -6.515625 30.265625 -6.953125 C 31.953125 -7.390625 33.503906 -7.988281 34.921875 -8.75 L 37.625 -2.453125 C 36.257812 -1.578125 34.40625 -0.8125 32.0625 -0.15625 C 29.71875 0.488281 26.882812 0.8125 23.5625 0.8125 Z M 31.484375 -21.84375 C 31.546875 -25.21875 30.8125 -27.597656 29.28125 -28.984375 C 27.757812 -30.378906 25.578125 -31.078125 22.734375 -31.078125 C 17.015625 -31.078125 13.71875 -28 12.84375 -21.84375 Z M 31.484375 -21.84375 "/></g></g></g><g fill="#5271ff" fill-opacity="1"><g transform="translate(104.67049, 359.049991)"><g><path d="M 5.96875 -37.546875 L 14.484375 -37.546875 L 14.484375 -30.59375 C 17.484375 -35.882812 22.171875 -38.53125 28.546875 -38.53125 C 33.835938 -38.53125 38.117188 -36.851562 41.390625 -33.5 C 44.660156 -30.144531 46.296875 -25.304688 46.296875 -18.984375 C 46.296875 -15.054688 45.488281 -11.59375 43.875 -8.59375 C 42.269531 -5.59375 40.085938 -3.273438 37.328125 -1.640625 C 34.578125 -0.00390625 31.515625 0.8125 28.140625 0.8125 C 24.972656 0.8125 22.226562 0.253906 19.90625 -0.859375 C 17.59375 -1.972656 15.785156 -3.566406 14.484375 -5.640625 L 14.5625 19.875 L 5.96875 19.875 Z M 26.09375 -6.625 C 29.632812 -6.625 32.359375 -7.753906 34.265625 -10.015625 C 36.179688 -12.285156 37.140625 -15.191406 37.140625 -18.734375 C 37.140625 -22.441406 36.195312 -25.398438 34.3125 -27.609375 C 32.425781 -29.816406 29.6875 -30.921875 26.09375 -30.921875 C 24.132812 -30.921875 22.296875 -30.441406 20.578125 -29.484375 C 18.859375 -28.535156 17.492188 -27.171875 16.484375 -25.390625 C 15.472656 -23.617188 14.96875 -21.5625 14.96875 -19.21875 L 14.96875 -18.65625 C 14.96875 -16.300781 15.472656 -14.210938 16.484375 -12.390625 C 17.492188 -10.566406 18.84375 -9.148438 20.53125 -8.140625 C 22.21875 -7.128906 24.070312 -6.625 26.09375 -6.625 Z M 26.09375 -6.625 "/></g></g></g><g fill="#5271ff" fill-opacity="1"><g transform="translate(154.561534, 359.049991)"><g><path d="M 5.5625 -37.546875 L 14.390625 -37.546875 L 14.390625 -30.1875 C 15.265625 -32.695312 16.679688 -34.710938 18.640625 -36.234375 C 20.609375 -37.765625 22.847656 -38.53125 25.359375 -38.53125 C 27.097656 -38.53125 28.296875 -38.363281 28.953125 -38.03125 L 27.734375 -29.125 C 27.242188 -29.445312 26.179688 -29.609375 24.546875 -29.609375 C 21.972656 -29.609375 19.632812 -28.789062 17.53125 -27.15625 C 15.4375 -25.519531 14.390625 -22.898438 14.390625 -19.296875 L 14.390625 0 L 5.5625 0 Z M 5.5625 -37.546875 "/></g></g></g><g fill="#5271ff" fill-opacity="1"><g transform="translate(183.923641, 359.049991)"><g><path d="M 23.3125 0.8125 C 19.4375 0.8125 16 -0.0546875 13 -1.796875 C 10 -3.546875 7.679688 -5.921875 6.046875 -8.921875 C 4.410156 -11.921875 3.59375 -15.242188 3.59375 -18.890625 C 3.59375 -22.492188 4.394531 -25.796875 6 -28.796875 C 7.613281 -31.796875 9.921875 -34.164062 12.921875 -35.90625 C 15.921875 -37.65625 19.382812 -38.53125 23.3125 -38.53125 C 27.238281 -38.53125 30.6875 -37.65625 33.65625 -35.90625 C 36.632812 -34.164062 38.925781 -31.796875 40.53125 -28.796875 C 42.132812 -25.796875 42.9375 -22.492188 42.9375 -18.890625 C 42.9375 -15.242188 42.117188 -11.921875 40.484375 -8.921875 C 38.847656 -5.921875 36.546875 -3.546875 33.578125 -1.796875 C 30.609375 -0.0546875 27.1875 0.8125 23.3125 0.8125 Z M 23.5625 -6.375 C 26.71875 -6.375 29.207031 -7.546875 31.03125 -9.890625 C 32.863281 -12.242188 33.78125 -15.191406 33.78125 -18.734375 C 33.78125 -22.273438 32.796875 -25.257812 30.828125 -27.6875 C 28.867188 -30.113281 26.28125 -31.328125 23.0625 -31.328125 C 19.957031 -31.328125 17.460938 -30.125 15.578125 -27.71875 C 13.703125 -25.320312 12.765625 -22.328125 12.765625 -18.734375 C 12.765625 -15.242188 13.769531 -12.3125 15.78125 -9.9375 C 17.800781 -7.5625 20.394531 -6.375 23.5625 -6.375 Z M 23.5625 -6.375 "/></g></g></g><g fill="#5271ff" fill-opacity="1"><g transform="translate(230.461348, 359.049991)"><g><path d="M 18.734375 0.8125 C 16.117188 0.8125 13.40625 0.472656 10.59375 -0.203125 C 7.78125 -0.890625 5.773438 -1.695312 4.578125 -2.625 L 7.53125 -9.5625 C 10.800781 -7.28125 14.535156 -6.140625 18.734375 -6.140625 C 22.929688 -6.140625 25.03125 -7.363281 25.03125 -9.8125 C 25.03125 -10.90625 24.59375 -11.75 23.71875 -12.34375 C 22.84375 -12.945312 21.289062 -13.660156 19.0625 -14.484375 L 15.953125 -15.625 C 12.679688 -16.9375 10.085938 -18.503906 8.171875 -20.328125 C 6.265625 -22.148438 5.3125 -24.5625 5.3125 -27.5625 C 5.3125 -31 6.660156 -33.6875 9.359375 -35.625 C 12.066406 -37.5625 15.679688 -38.53125 20.203125 -38.53125 C 22.441406 -38.53125 24.632812 -38.28125 26.78125 -37.78125 C 28.9375 -37.289062 30.585938 -36.664062 31.734375 -35.90625 L 28.546875 -28.875 C 27.835938 -29.582031 26.707031 -30.191406 25.15625 -30.703125 C 23.601562 -31.222656 21.867188 -31.484375 19.953125 -31.484375 C 16.085938 -31.484375 14.15625 -30.3125 14.15625 -27.96875 C 14.15625 -26.664062 14.671875 -25.671875 15.703125 -24.984375 C 16.742188 -24.304688 18.4375 -23.554688 20.78125 -22.734375 C 21 -22.679688 21.84375 -22.382812 23.3125 -21.84375 C 26.800781 -20.476562 29.390625 -18.921875 31.078125 -17.171875 C 32.773438 -15.429688 33.625 -13.195312 33.625 -10.46875 C 33.625 -6.757812 32.21875 -3.953125 29.40625 -2.046875 C 26.59375 -0.140625 23.035156 0.8125 18.734375 0.8125 Z M 18.734375 0.8125 "/></g></g></g><g fill="#5271ff" fill-opacity="1"><g transform="translate(267.429789, 359.049991)"><g><path d="M 23.3125 0.8125 C 19.4375 0.8125 16 -0.0546875 13 -1.796875 C 10 -3.546875 7.679688 -5.921875 6.046875 -8.921875 C 4.410156 -11.921875 3.59375 -15.242188 3.59375 -18.890625 C 3.59375 -22.492188 4.394531 -25.796875 6 -28.796875 C 7.613281 -31.796875 9.921875 -34.164062 12.921875 -35.90625 C 15.921875 -37.65625 19.382812 -38.53125 23.3125 -38.53125 C 27.238281 -38.53125 30.6875 -37.65625 33.65625 -35.90625 C 36.632812 -34.164062 38.925781 -31.796875 40.53125 -28.796875 C 42.132812 -25.796875 42.9375 -22.492188 42.9375 -18.890625 C 42.9375 -15.242188 42.117188 -11.921875 40.484375 -8.921875 C 38.847656 -5.921875 36.546875 -3.546875 33.578125 -1.796875 C 30.609375 -0.0546875 27.1875 0.8125 23.3125 0.8125 Z M 23.5625 -6.375 C 26.71875 -6.375 29.207031 -7.546875 31.03125 -9.890625 C 32.863281 -12.242188 33.78125 -15.191406 33.78125 -18.734375 C 33.78125 -22.273438 32.796875 -25.257812 30.828125 -27.6875 C 28.867188 -30.113281 26.28125 -31.328125 23.0625 -31.328125 C 19.957031 -31.328125 17.460938 -30.125 15.578125 -27.71875 C 13.703125 -25.320312 12.765625 -22.328125 12.765625 -18.734375 C 12.765625 -15.242188 13.769531 -12.3125 15.78125 -9.9375 C 17.800781 -7.5625 20.394531 -6.375 23.5625 -6.375 Z M 23.5625 -6.375 "/></g></g></g><g fill="#5271ff" fill-opacity="1"><g transform="translate(313.96751, 359.049991)"><g><path d="M 9.328125 -30.515625 L 3.265625 -30.515625 L 3.265625 -37.546875 L 9.328125 -37.546875 L 9.328125 -45.640625 C 9.328125 -50.546875 10.507812 -54.347656 12.875 -57.046875 C 15.25 -59.753906 18.726562 -61.109375 23.3125 -61.109375 C 25.164062 -61.109375 27.265625 -60.585938 29.609375 -59.546875 L 27.890625 -51.203125 C 27.503906 -51.640625 26.914062 -52.0625 26.125 -52.46875 C 25.34375 -52.882812 24.488281 -53.09375 23.5625 -53.09375 C 19.90625 -53.09375 18.050781 -50.71875 18 -45.96875 L 18 -37.546875 L 26.828125 -37.546875 L 26.828125 -30.515625 L 18 -30.515625 L 18 0 L 9.328125 0 Z M 9.328125 -30.515625 "/></g></g></g><g fill="#5271ff" fill-opacity="1"><g transform="translate(343.574982, 359.049991)"><g><path d="M 9.078125 -30.34375 L 2.453125 -30.34375 L 2.453125 -37.546875 L 9.078125 -37.546875 L 9.078125 -52.84375 L 18 -54.796875 L 18 -37.546875 L 26.671875 -37.546875 L 26.671875 -30.34375 L 18 -30.34375 L 18 0 L 9.078125 0 Z M 9.078125 -30.34375 "/></g></g></g></svg>